<?xml version="1.0" encoding="utf-8"?>
<svg version="1.1" id="Layer_1" xmlns="http://www.w3.org/2000/svg" xmlns:xlink="http://www.w3.org/1999/xlink" x="0px" y="0px" viewBox="0 0 236.1 67.7" enable-background="new 0 0 236.1 67.7" xml:space="preserve">
<title>Johnboy Partners</title>
<g>
	<path fill="#3D405B" d="M26.8,36.9h10.9c5.3,0,8.6,2.5,8.6,6.2c0,3.8-3.2,6.3-8.6,6.3h-9.2v9.9h-1.8V36.9z M37.6,48.1
		c4.4,0,6.8-2,6.8-5c0-2.9-2.4-4.9-6.8-4.9h-9.1v9.8H37.6z"/>
	<path fill="#3D405B" d="M54.9,36.9h2.2l11.2,22.5h-1.9l-3.7-7.6H49.3l-3.8,7.6h-1.9L54.9,36.9z M62,50.5l-6-12.2l-6.1,12.2H62z"/>
	<path fill="#3D405B" d="M71.8,36.9h10.9c5.5,0,8.5,2.7,8.5,6.2c0,2.9-2.1,5.3-5.9,6l6,10.3h-1.9l-5.8-10h-10v10h-1.8V36.9z
		 M82.6,48c4.4,0,6.8-2.1,6.8-4.9s-2.4-4.9-6.8-4.9h-9V48H82.6z"/>
	<path fill="#3D405B" d="M102.3,38.3h-10v-1.4h21.9v1.4h-10v21.2h-1.8V38.3z"/>
	<path fill="#3D405B" d="M118,36.9h1.9l17.5,19.9V36.9h1.8v22.5h-1.5l-17.8-20.3v20.3H118V36.9z"/>
	<path fill="#3D405B" d="M145.5,36.9h18.7v1.4h-16.9v9.1h11v1.4h-11v9.3h17.1v1.4h-18.9V36.9z"/>
	<path fill="#3D405B" d="M168.8,36.9h10.9c5.5,0,8.5,2.7,8.5,6.2c0,2.9-2.1,5.3-5.9,6l6,10.3h-1.9l-5.8-10h-10v10h-1.8V36.9z
		 M179.6,48c4.4,0,6.8-2.1,6.8-4.9s-2.4-4.9-6.8-4.9h-9V48H179.6z"/>
	<path fill="#3D405B" d="M190.5,55.5l1.4-1c2.6,2.5,5.9,3.9,9.6,3.9c4.6,0,8-2.2,8-5.2c0-2.6-2-3.9-7-4.6l-3.3-0.5
		c-5.4-0.7-7.8-2.5-7.8-5.6c0-3.6,3.7-6.1,9-6.1c3.6,0,7.2,1,10.4,3l-1.1,1.2c-3-1.9-6.2-2.8-9.3-2.8c-4.2,0-7.2,1.9-7.2,4.6
		c0,2.4,1.7,3.6,6.2,4.2l3.3,0.5c6.1,0.8,8.6,2.6,8.6,6.1c0,3.8-4.1,6.5-9.9,6.5C197.2,59.8,193.3,58.3,190.5,55.5z"/>
</g>
<g>
	<path fill="#3D405B" d="M0.8,25l6.2-2c1.3,3.3,3.6,4.8,7,4.8c4,0,6.6-2.4,6.6-6V5.5h6.7v16.6C27.4,28.6,22,33,13.9,33
		C7.4,33,2.7,30.1,0.8,25z"/>
	<path fill="#3D405B" d="M31.5,19c0-7.8,7.6-14,17.2-14c9.7,0,17.2,6.2,17.2,14c0,7.8-7.5,14-17.2,14C39.1,33,31.5,26.9,31.5,19z
		 M59,19c0-5-4.5-8.8-10.3-8.8c-5.8,0-10.3,3.8-10.3,8.8c0,5,4.5,8.8,10.3,8.8C54.5,27.9,59,24,59,19z"/>
	<path fill="#3D405B" d="M70.5,5.5h6.7v10.9h15V5.5h6.7v27.1h-6.7V21.5h-15v11.1h-6.7V5.5z"/>
	<path fill="#3D405B" d="M104.8,5.5h6.4L127.4,23V5.5h6.3v27.1h-5.9l-16.6-18.1v18.1h-6.4V5.5z"/>
	<path fill="#3D405B" d="M139.6,5.5h15.3c6.5,0,11,3,11,7.4c0,2.4-1.5,4.4-4,5.7c3.2,1.2,5.2,3.4,5.2,6.1c0,4.7-4.6,7.9-11.4,7.9
		h-16V5.5z M154.5,16.6c2.9,0,4.7-1.2,4.7-3.2s-1.9-3.2-4.7-3.2h-8.1v6.4H154.5z M155.1,27.9c3.1,0,5.1-1.4,5.1-3.5
		c0-2.1-2-3.5-5.1-3.5h-8.8v7H155.1z"/>
	<path fill="#3D405B" d="M170,19c0-7.8,7.6-14,17.2-14c9.7,0,17.2,6.2,17.2,14c0,7.8-7.5,14-17.2,14C177.5,33,170,26.9,170,19z
		 M197.5,19c0-5-4.5-8.8-10.3-8.8c-5.8,0-10.3,3.8-10.3,8.8c0,5,4.5,8.8,10.3,8.8C193,27.9,197.5,24,197.5,19z"/>
	<path fill="#3D405B" d="M216,22.2L202.8,5.5h7.8l9.1,11.8l9.1-11.8h7.3l-13.3,16.8v10.3H216V22.2z"/>
</g>
</svg>
